<svg xmlns="http://www.w3.org/2000/svg" width="217.486" height="188.379" viewBox="0 0 217.486 188.379">
  <g id="logo_symbul_big" data-name="logo symbul big" transform="translate(0 0)">
    <path id="noun-duck-3203606" d="M173.267,71.087c24.914-2.956,42.835-19.636,42.413-28.5a4.963,4.963,0,0,0-5.278-4.645c-8.868.845-29.322,5.278-34.6,4.645A47.233,47.233,0,0,0,124.7,5.634,47.373,47.373,0,0,0,97.257,87.556c4.856,4.645,3.8,12.668-2.534,15.2-5.912,2.534-15.413,3.8-28.715,3.8-21.747,0-34.838-7.39-42.228-14.78C18.291,86.289,9,89.034,6.89,96.635c-9.079,33.36-13.3,97.124,86.778,97.124,105.358,0,80.655-73.054,68.831-98.6a8.758,8.758,0,0,1,1.9-10.135A50.482,50.482,0,0,0,173.267,71.087Zm-26.6-20.058a10.346,10.346,0,1,1,10.346-10.346A10.363,10.363,0,0,1,146.663,51.029Z" transform="translate(-2.54 -5.38)" fill="#181616"/>
    <path id="Path_3" data-name="Path 3" d="M.075,6.5,6.838,22.863s5.48,2.824,8.41,0S21.074,13.9,19.93,8.254,15.471.981,10.672.275,4.547.332,1.983,1.321.075,6.5.075,6.5Z" transform="matrix(0.996, -0.087, 0.087, 0.996, 195.274, 28.603)" fill="#181616"/>
  </g>
</svg>
