<svg xmlns="http://www.w3.org/2000/svg" width="225.346" height="46" viewBox="0 0 225.346 46">
  <g id="logo_with_text" data-name="logo with text" transform="translate(-129.702 -158)">
    <g id="Group_2" data-name="Group 2" transform="translate(129.702 159.827)">
      <path id="noun-duck-3203606" d="M38.6,19.258c5.262-.624,9.047-4.147,8.958-6.02a1.048,1.048,0,0,0-1.115-.981c-1.873.178-6.193,1.115-7.308.981a9.976,9.976,0,0,0-10.792-7.8,10.006,10.006,0,0,0-5.8,17.3,1.92,1.92,0,0,1-.535,3.211,16.558,16.558,0,0,1-6.065.8c-4.593,0-7.358-1.561-8.919-3.122a2.144,2.144,0,0,0-3.568,1.026C1.541,31.7.649,45.168,21.788,45.168c22.253,0,17.036-15.43,14.538-20.826a1.85,1.85,0,0,1,.4-2.141A10.662,10.662,0,0,0,38.6,19.258Zm-5.619-4.237a2.185,2.185,0,1,1,2.185-2.185A2.189,2.189,0,0,1,32.981,15.021Z" transform="translate(-2.54 -5.379)" fill="#ceeeea"/>
      <path id="Path_3" data-name="Path 3" d="M.016,1.373,1.444,4.829s1.157.6,1.776,0A3.667,3.667,0,0,0,4.21,1.743,1.958,1.958,0,0,0,2.254.058,2.766,2.766,0,0,0,.419.279C-.123.488.016,1.373.016,1.373Z" transform="matrix(0.996, -0.087, 0.087, 0.996, 41.245, 6.041)" fill="#ceeeea"/>
    </g>
    <text id="duckpuc" transform="translate(182.048 194)" fill="#ceeeea" font-size="39" font-family="Rubik-ExtraBold, Rubik" font-weight="800"><tspan x="0" y="0">duckpuc</tspan></text>
  </g>
</svg>
